<svg id="visual" viewBox="0 0 900 450" width="900" height="450" xmlns="http://www.w3.org/2000/svg" xmlns:xlink="http://www.w3.org/1999/xlink" version="1.1"><rect x="0" y="0" width="900" height="450" fill="#67dbb3"></rect><defs><linearGradient id="grad1_0" x1="50%" y1="0%" x2="100%" y2="100%"><stop offset="10%" stop-color="#000000" stop-opacity="1"></stop><stop offset="90%" stop-color="#000000" stop-opacity="1"></stop></linearGradient></defs><defs><linearGradient id="grad1_1" x1="50%" y1="0%" x2="100%" y2="100%"><stop offset="10%" stop-color="#000000" stop-opacity="1"></stop><stop offset="90%" stop-color="#004d2f" stop-opacity="1"></stop></linearGradient></defs><defs><linearGradient id="grad1_2" x1="50%" y1="0%" x2="100%" y2="100%"><stop offset="10%" stop-color="#00916d" stop-opacity="1"></stop><stop offset="90%" stop-color="#004d2f" stop-opacity="1"></stop></linearGradient></defs><defs><linearGradient id="grad1_3" x1="50%" y1="0%" x2="100%" y2="100%"><stop offset="10%" stop-color="#00916d" stop-opacity="1"></stop><stop offset="90%" stop-color="#67dbb3" stop-opacity="1"></stop></linearGradient></defs><defs><linearGradient id="grad2_0" x1="0%" y1="0%" x2="50%" y2="100%"><stop offset="10%" stop-color="#000000" stop-opacity="1"></stop><stop offset="90%" stop-color="#000000" stop-opacity="1"></stop></linearGradient></defs><defs><linearGradient id="grad2_1" x1="0%" y1="0%" x2="50%" y2="100%"><stop offset="10%" stop-color="#004d2f" stop-opacity="1"></stop><stop offset="90%" stop-color="#000000" stop-opacity="1"></stop></linearGradient></defs><defs><linearGradient id="grad2_2" x1="0%" y1="0%" x2="50%" y2="100%"><stop offset="10%" stop-color="#004d2f" stop-opacity="1"></stop><stop offset="90%" stop-color="#00916d" stop-opacity="1"></stop></linearGradient></defs><defs><linearGradient id="grad2_3" x1="0%" y1="0%" x2="50%" y2="100%"><stop offset="10%" stop-color="#67dbb3" stop-opacity="1"></stop><stop offset="90%" stop-color="#00916d" stop-opacity="1"></stop></linearGradient></defs><g transform="translate(900, 0)"><path d="M0 405C-55.4 402.1 -110.8 399.3 -155 374.2C-199.1 349.1 -232 301.7 -259.5 259.5C-287 217.3 -309.2 180.2 -332.6 137.8C-356 95.4 -380.5 47.7 -405 0L0 0Z" fill="#3eb68f"></path><path d="M0 303.8C-41.6 301.6 -83.1 299.5 -116.2 280.6C-149.3 261.8 -174 226.3 -194.6 194.6C-215.3 163 -231.9 135.1 -249.4 103.3C-267 71.5 -285.4 35.8 -303.7 0L0 0Z" fill="#006e4d"></path><path d="M0 202.5C-27.7 201.1 -55.4 199.6 -77.5 187.1C-99.6 174.5 -116 150.9 -129.8 129.8C-143.5 108.6 -154.6 90.1 -166.3 68.9C-178 47.7 -190.2 23.8 -202.5 0L0 0Z" fill="#002e13"></path><path d="M0 101.3C-13.9 100.5 -27.7 99.8 -38.7 93.5C-49.8 87.3 -58 75.4 -64.9 64.9C-71.8 54.3 -77.3 45 -83.1 34.4C-89 23.8 -95.1 11.9 -101.2 0L0 0Z" fill="#000000"></path></g><g transform="translate(0, 450)"><path d="M0 -405C43 -375.5 85.9 -345.9 137 -330.7C188.1 -315.6 247.2 -314.8 286.4 -286.4C325.6 -258 344.8 -202 361.2 -149.6C377.7 -97.3 391.3 -48.6 405 0L0 0Z" fill="#3eb68f"></path><path d="M0 -303.7C32.2 -281.6 64.5 -259.4 102.8 -248.1C141 -236.7 185.4 -236.1 214.8 -214.8C244.2 -193.5 258.6 -151.5 270.9 -112.2C283.3 -73 293.5 -36.5 303.8 0L0 0Z" fill="#006e4d"></path><path d="M0 -202.5C21.5 -187.7 43 -173 68.5 -165.4C94 -157.8 123.6 -157.4 143.2 -143.2C162.8 -129 172.4 -101 180.6 -74.8C188.8 -48.6 195.7 -24.3 202.5 0L0 0Z" fill="#002e13"></path><path d="M0 -101.2C10.7 -93.9 21.5 -86.5 34.3 -82.7C47 -78.9 61.8 -78.7 71.6 -71.6C81.4 -64.5 86.2 -50.5 90.3 -37.4C94.4 -24.3 97.8 -12.2 101.3 0L0 0Z" fill="#000000"></path></g></svg>