<svg xmlns="http://www.w3.org/2000/svg" version="1.1" xmlns:xlink="http://www.w3.org/1999/xlink" xmlns:svgjs="http://svgjs.dev/svgjs" width="2000" height="530" viewBox="0 0 2000 530"><g transform="matrix(1,0,0,1,-1.212109680365188,0.4897613213314571)"><svg viewBox="0 0 396 105" data-background-color="#ffffff" preserveAspectRatio="xMidYMid meet" height="530" width="2000" xmlns="http://www.w3.org/2000/svg" xmlns:xlink="http://www.w3.org/1999/xlink"><g id="tight-bounds" transform="matrix(1,0,0,1,0.23999771671230974,-0.09702818630151455)"><svg viewBox="0 0 395.52 105.19405637260304" height="105.19405637260304" width="395.52"><g><svg viewBox="0 0 609.0795655073603 161.99319920454548" height="105.19405637260304" width="395.52"><g transform="matrix(1,0,0,1,213.5595655073603,0.02487098887843331)"><svg viewBox="0 0 395.52 161.9434572267886" height="161.9434572267886" width="395.52"><g id="textblocktransform"><svg viewBox="0 0 395.52 161.9434572267886" height="161.9434572267886" width="395.52" id="textblock"><g><svg viewBox="0 0 395.52 109.21560493827161" height="109.21560493827161" width="395.52"><g transform="matrix(1,0,0,1,0,0)"><svg width="395.52" viewBox="1.399999976158142 -32.79999923706055 121.48999786376953 33.54999923706055" height="109.21560493827161" data-palette-color="#b9ffe6"><g class="undefined-text-0" data-fill-palette-color="primary" id="text-0"><path d="M5.25-25.9Q5.25-27.45 4.9-27.98 4.55-28.5 3.45-28.5L3.45-28.5Q3-28.5 2.6-28.45 2.2-28.4 2.05-28.4L2.05-28.4 1.7-28.95 2.1-32.3 9.35-32.2Q10.7-32.2 13.4-32.33 16.1-32.45 17-32.5L17-32.5 16.65-28.7Q14.8-28.3 14.23-27.75 13.65-27.2 13.6-25.85L13.6-25.85 13.15-7.15Q13.1-5.05 13.48-4.38 13.85-3.7 14.95-3.7L14.95-3.7Q15.65-3.7 16.13-3.75 16.6-3.8 16.75-3.85L16.75-3.85 17.05-3.45 16.6 0.2Q15.7 0.15 13.35 0.08 11 0 8.9 0L8.9 0Q7.05 0 4.6 0.08 2.15 0.15 1.4 0.2L1.4 0.2 1.8-3.45Q3.25-3.7 3.95-4.1 4.65-4.5 4.93-5.25 5.2-6 5.2-7.45L5.2-7.45 5.25-25.9ZM14.1-17.1L20.7-24.55Q21.3-25.1 21.6-25.73 21.9-26.35 21.9-26.9L21.9-26.9Q21.9-27.7 21.35-28.08 20.8-28.45 19.55-28.5L19.55-28.5 19.3-28.9 19.7-32.4Q20.45-32.35 22.43-32.27 24.4-32.2 26.35-32.2L26.35-32.2Q28.15-32.2 30.08-32.3 32-32.4 32.75-32.45L32.75-32.45 33.15-31.8 32.75-28.55Q31.1-27.75 29.53-26.3 27.95-24.85 25.85-22.2L25.85-22.2 21.95-17.55 27.8-7.9Q29.15-5.65 30.33-4.65 31.5-3.65 33.15-3.45L33.15-3.45 33.55-2.9 33.05 0.2Q32.15 0.3 29.63 0.53 27.1 0.75 26.5 0.75L26.5 0.75Q24.75 0.75 23.5-0.18 22.25-1.1 20.95-3.35L20.95-3.35 13.9-15.8 14.1-17.1ZM40.25 0.5L40.65-3.4Q42.75-3.65 43.72-4.05 44.7-4.45 45.05-5.28 45.4-6.1 45.4-7.8L45.4-7.8 45.4-9Q45.4-10.25 45.1-11.3 44.8-12.35 44-13.85L44-13.85 38.9-23.6Q37.85-25.6 36.7-26.65 35.55-27.7 33.55-28.25L33.55-28.25 33.35-28.5 33.8-32.3Q34.6-32.3 36.72-32.23 38.85-32.15 40.7-32.15L40.7-32.15Q42.25-32.15 45.2-32.33 48.15-32.5 49.1-32.55L49.1-32.55 49.4-32.05 49.05-28.65Q47.65-28.6 47.05-28.28 46.45-27.95 46.45-27.25L46.45-27.25Q46.45-26.6 47.7-23.75 48.95-20.9 49.1-20.5L49.1-20.5 50.1-18.15 50.7-18.15 53.85-25.35Q54.55-26.95 54.55-27.65L54.55-27.65Q54.55-28.15 54.02-28.38 53.5-28.6 52.25-28.65L52.25-28.65 52.1-28.95 52.5-32.25Q54.45-32.25 55.6-32.2L55.6-32.2 59.65-32.15Q61.2-32.15 62.85-32.23 64.5-32.3 65-32.35L65-32.35 65.2-32 64.85-28.4Q63.05-27.65 61.75-26.2 60.45-24.75 59-22.05L59-22.05 54.3-13Q53.7-11.8 53.57-10.65 53.45-9.5 53.45-6.8L53.45-6.8Q53.45-5.15 53.97-4.5 54.5-3.85 55.85-3.85L55.85-3.85Q56.75-3.85 57.42-3.9 58.1-3.95 58.35-4L58.35-4 58.55-3.7 58.1 0.25Q57.05 0.2 54.3 0.1 51.55 0 49 0L49 0Q47.15 0 44.17 0.2 41.2 0.4 40.25 0.5L40.25 0.5ZM66.35 0.45L66.75-3.45Q68.7-3.8 69.4-4.67 70.1-5.55 70.1-7.65L70.1-7.65 70.15-25.8Q70.15-27.35 69.82-27.93 69.5-28.5 68.65-28.5L68.65-28.5Q68.1-28.5 67.6-28.45 67.1-28.4 66.95-28.4L66.95-28.4 66.55-28.85 67-32.25 73.65-32.2Q75.8-32.2 78.32-32.3 80.85-32.4 81.85-32.45L81.85-32.45Q88.9-32.45 91.72-29.55 94.55-26.65 94.55-22.5L94.55-22.5Q94.55-19.5 92.85-16.82 91.15-14.15 88.35-12.55 85.55-10.95 82.35-10.95L82.35-10.95 78.1-10.95 78.05-7.8Q78.05-6.1 78.22-5.25 78.4-4.4 78.92-4.08 79.45-3.75 80.45-3.75L80.45-3.75Q81.1-3.75 81.67-3.8 82.25-3.85 82.45-3.85L82.45-3.85 82.65-3.5 82.15 0.2Q81.3 0.15 79.15 0.08 77 0 75.1 0L75.1 0Q73.45 0 70.42 0.18 67.4 0.35 66.35 0.45L66.35 0.45ZM82.2-15.55Q86.1-16.6 86.1-21.9L86.1-21.9Q86.1-24.75 84.55-26.05 83-27.35 79.65-27.35L79.65-27.35Q79-27.35 78.85-27.2 78.7-27.05 78.65-26.4L78.65-26.4Q78.35-21.95 78.2-16.1L78.2-16.1 82.2-15.55ZM122.44-10.6L122.89-10Q121.99-5.25 121.49-0.3L121.49-0.3 120.89 0.35Q111.89 0 105.14 0L105.14 0Q100.59 0 95.69 0.5L95.69 0.5 96.09-3.4Q98.09-3.7 98.82-4.63 99.54-5.55 99.54-7.75L99.54-7.75 99.59-25.8Q99.59-27.4 99.29-27.95 98.99-28.5 98.09-28.5L98.09-28.5Q97.34-28.5 96.64-28.4L96.64-28.4 96.19-28.95 96.64-32.35 97.74-32.35Q105.69-32.2 106.84-32.2L106.84-32.2Q117.74-32.2 122.14-32.8L122.14-32.8 122.64-32.15Q122.24-30.2 121.92-27.5 121.59-24.8 121.49-22.7L121.49-22.7 115.99-22.35 116.09-24.25Q116.09-25.6 115.67-26.2 115.24-26.8 114.07-27.03 112.89-27.25 110.34-27.25L110.34-27.25Q108.89-27.25 108.49-27 108.09-26.75 108.09-25.75L108.09-25.75 107.74-18.85 112.19-18.8Q113.39-18.8 117.84-19.15L117.84-19.15 118.34-18.6 117.64-13.7Q112.69-13.85 111.34-13.85L111.34-13.85Q110.29-13.85 109.09-13.73 107.89-13.6 107.54-13.55L107.54-13.55 107.44-7.7Q107.44-6.3 107.64-5.7 107.84-5.1 108.42-4.9 108.99-4.7 110.34-4.7L110.34-4.7Q113.14-4.7 114.47-5.1 115.79-5.5 116.37-6.63 116.94-7.75 117.29-10.25L117.29-10.25 122.44-10.6Z" fill="#000000" data-fill-palette-color="primary"></path></g></svg></g></svg></g><g transform="matrix(1,0,0,1,0,134.998788089679)"><svg viewBox="0 0 395.52 26.94466913710958" height="26.94466913710958" width="395.52"><g transform="matrix(1,0,0,1,0,0)"><svg width="395.52" viewBox="5.050000190734863 -38.2599983215332 737.8200073242188 50.269996643066406" height="26.94466913710958" data-palette-color="#b9ffe6"><path d="M14.04-20.61L29.05 0 26 0 12.3-18.85 7.54-14.65 7.54 0 5.05 0 5.05-35.69 7.54-35.69 7.54-17.14 11.5-21.09 25.49-35.69 28.66-35.69 14.04-20.61ZM54.39 0L52 0 52-17.21Q52-21.22 50.31-23.03 48.63-24.85 45.09-24.85L45.09-24.85Q40.33-24.85 38.12-22.45 35.91-20.04 35.91-14.65L35.91-14.65 35.91 0 33.49 0 33.49-26.54 35.54-26.54 36.01-22.9 36.15-22.9Q38.74-27.05 45.36-27.05L45.36-27.05Q54.39-27.05 54.39-17.36L54.39-17.36 54.39 0ZM84.93-13.31L84.93-13.31Q84.93-6.81 81.78-3.16 78.63 0.49 73.09 0.49L73.09 0.49Q69.6 0.49 66.94-1.2 64.28-2.88 62.86-6.03 61.45-9.18 61.45-13.31L61.45-13.31Q61.45-19.8 64.59-23.43 67.74-27.05 73.24-27.05L73.24-27.05Q78.71-27.05 81.82-23.38 84.93-19.7 84.93-13.31ZM63.98-13.31L63.98-13.31Q63.98-7.84 66.39-4.77 68.79-1.71 73.19-1.71L73.19-1.71Q77.58-1.71 79.99-4.77 82.39-7.84 82.39-13.31L82.39-13.31Q82.39-18.8 79.96-21.83 77.53-24.85 73.14-24.85L73.14-24.85Q68.75-24.85 66.36-21.84 63.98-18.82 63.98-13.31ZM116.03 0L113.49 0 107.68-17.75Q107.12-19.56 106.24-23.05L106.24-23.05 106.1-23.05 105.58-21.24 104.48-17.7 98.58 0 96.18 0 88.59-26.54 91.18-26.54 95.43-11.16Q96.92-5.44 97.38-2.76L97.38-2.76 97.53-2.76Q98.97-8.47 99.63-10.35L99.63-10.35 105.1-26.54 107.29-26.54 112.49-10.4Q114.25-4.66 114.64-2.81L114.64-2.81 114.79-2.81Q114.98-4.39 116.74-11.3L116.74-11.3 120.79-26.54 123.23-26.54 116.03 0ZM139.83-35.69L150.23-16.16 160.68-35.69 163.37-35.69 151.48-13.79 151.48 0 148.91 0 148.91-13.6 136.97-35.69 139.83-35.69ZM189.76-13.31L189.76-13.31Q189.76-6.81 186.61-3.16 183.46 0.49 177.91 0.49L177.91 0.49Q174.42 0.49 171.76-1.2 169.1-2.88 167.69-6.03 166.27-9.18 166.27-13.31L166.27-13.31Q166.27-19.8 169.42-23.43 172.57-27.05 178.06-27.05L178.06-27.05Q183.53-27.05 186.64-23.38 189.76-19.7 189.76-13.31ZM168.81-13.31L168.81-13.31Q168.81-7.84 171.21-4.77 173.62-1.71 178.01-1.71L178.01-1.71Q182.41-1.71 184.81-4.77 187.22-7.84 187.22-13.31L187.22-13.31Q187.22-18.8 184.79-21.83 182.36-24.85 177.96-24.85L177.96-24.85Q173.57-24.85 171.19-21.84 168.81-18.82 168.81-13.31ZM196.81-26.54L199.2-26.54 199.2-9.35Q199.2-5.35 200.89-3.53 202.57-1.71 206.11-1.71L206.11-1.71Q210.85-1.71 213.08-4.1 215.31-6.49 215.31-11.89L215.31-11.89 215.31-26.54 217.71-26.54 217.71 0 215.66 0 215.22-3.66 215.07-3.66Q212.48 0.49 205.87 0.49L205.87 0.49Q196.81 0.49 196.81-9.2L196.81-9.2 196.81-26.54ZM237.04-27.05L237.04-27.05Q238.73-27.05 240.65-26.71L240.65-26.71 240.19-24.39Q238.53-24.8 236.75-24.8L236.75-24.8Q233.35-24.8 231.18-21.92 229.01-19.04 229.01-14.65L229.01-14.65 229.01 0 226.59 0 226.59-26.54 228.64-26.54 228.89-21.75 229.06-21.75Q230.69-24.68 232.55-25.87 234.4-27.05 237.04-27.05ZM281.13-25.44L281.13-25.44Q281.13-20.26 277.61-17.5 274.1-14.75 267.65-14.75L267.65-14.75 262.13-14.75 262.13 0 259.64 0 259.64-35.69 268.38-35.69Q281.13-35.69 281.13-25.44ZM262.13-33.45L262.13-16.89 267.04-16.89Q273.07-16.89 275.76-18.88 278.44-20.87 278.44-25.34L278.44-25.34Q278.44-29.47 275.9-31.46 273.36-33.45 268.04-33.45L268.04-33.45 262.13-33.45ZM298.73-27.05L298.73-27.05Q300.41-27.05 302.34-26.71L302.34-26.71 301.88-24.39Q300.22-24.8 298.43-24.8L298.43-24.8Q295.04-24.8 292.87-21.92 290.7-19.04 290.7-14.65L290.7-14.65 290.7 0 288.28 0 288.28-26.54 290.33-26.54 290.57-21.75 290.74-21.75Q292.38-24.68 294.24-25.87 296.09-27.05 298.73-27.05ZM329.68-13.31L329.68-13.31Q329.68-6.81 326.53-3.16 323.38 0.49 317.84 0.49L317.84 0.49Q314.35 0.49 311.69-1.2 309.03-2.88 307.61-6.03 306.2-9.18 306.2-13.31L306.2-13.31Q306.2-19.8 309.35-23.43 312.49-27.05 317.99-27.05L317.99-27.05Q323.46-27.05 326.57-23.38 329.68-19.7 329.68-13.31ZM308.73-13.31L308.73-13.31Q308.73-7.84 311.14-4.77 313.54-1.71 317.94-1.71L317.94-1.71Q322.33-1.71 324.74-4.77 327.14-7.84 327.14-13.31L327.14-13.31Q327.14-18.8 324.71-21.83 322.28-24.85 317.89-24.85L317.89-24.85Q313.5-24.85 311.12-21.84 308.73-18.82 308.73-13.31ZM346.89-26.54L346.89-24.44 340.64-24.44 340.64 0 338.22 0 338.22-24.44 333.29-24.44 333.29-25.85 338.22-26.76 338.22-28.81Q338.22-33.69 340.02-35.97 341.81-38.26 345.89-38.26L345.89-38.26Q348.09-38.26 350.28-37.6L350.28-37.6 349.72-35.5Q347.77-36.11 345.84-36.11L345.84-36.11Q343.01-36.11 341.83-34.44 340.64-32.76 340.64-29L340.64-29 340.64-26.54 346.89-26.54ZM362.73 0.49L362.73 0.49Q356.95 0.49 353.71-3.08 350.48-6.64 350.48-13.06L350.48-13.06Q350.48-19.41 353.6-23.23 356.73-27.05 362.03-27.05L362.03-27.05Q366.71-27.05 369.42-23.78 372.13-20.51 372.13-14.89L372.13-14.89 372.13-12.94 353.02-12.94Q353.07-7.47 355.57-4.59 358.07-1.71 362.73-1.71L362.73-1.71Q365-1.71 366.73-2.03 368.45-2.34 371.08-3.39L371.08-3.39 371.08-1.2Q368.84-0.22 366.93 0.13 365.03 0.49 362.73 0.49ZM362.03-24.9L362.03-24.9Q358.19-24.9 355.87-22.38 353.55-19.85 353.16-15.09L353.16-15.09 369.57-15.09Q369.57-19.7 367.57-22.3 365.57-24.9 362.03-24.9ZM395.91-6.91L395.91-6.91Q395.91-3.34 393.2-1.43 390.49 0.49 385.51 0.49L385.51 0.49Q380.19 0.49 377.06-1.15L377.06-1.15 377.06-3.76Q381.07-1.76 385.51-1.76L385.51-1.76Q389.44-1.76 391.48-3.06 393.52-4.37 393.52-6.54L393.52-6.54Q393.52-8.54 391.89-9.91 390.27-11.28 386.56-12.6L386.56-12.6Q382.58-14.04 380.97-15.08 379.36-16.11 378.54-17.42 377.72-18.73 377.72-20.61L377.72-20.61Q377.72-23.58 380.22-25.32 382.73-27.05 387.22-27.05L387.22-27.05Q391.52-27.05 395.37-25.44L395.37-25.44 394.47-23.24Q390.56-24.85 387.22-24.85L387.22-24.85Q383.97-24.85 382.07-23.78 380.16-22.71 380.16-20.8L380.16-20.8Q380.16-18.73 381.64-17.48 383.12-16.24 387.41-14.7L387.41-14.7Q391-13.4 392.64-12.37 394.27-11.33 395.09-10.01 395.91-8.69 395.91-6.91ZM419.2-6.91L419.2-6.91Q419.2-3.34 416.49-1.43 413.78 0.49 408.8 0.49L408.8 0.49Q403.48 0.49 400.35-1.15L400.35-1.15 400.35-3.76Q404.35-1.76 408.8-1.76L408.8-1.76Q412.73-1.76 414.77-3.06 416.81-4.37 416.81-6.54L416.81-6.54Q416.81-8.54 415.18-9.91 413.56-11.28 409.85-12.6L409.85-12.6Q405.87-14.04 404.26-15.08 402.65-16.11 401.83-17.42 401.01-18.73 401.01-20.61L401.01-20.61Q401.01-23.58 403.51-25.32 406.01-27.05 410.51-27.05L410.51-27.05Q414.8-27.05 418.66-25.44L418.66-25.44 417.76-23.24Q413.85-24.85 410.51-24.85L410.51-24.85Q407.26-24.85 405.36-23.78 403.45-22.71 403.45-20.8L403.45-20.8Q403.45-18.73 404.93-17.48 406.41-16.24 410.7-14.7L410.7-14.7Q414.29-13.4 415.93-12.37 417.56-11.33 418.38-10.01 419.2-8.69 419.2-6.91ZM447.98-13.31L447.98-13.31Q447.98-6.81 444.83-3.16 441.68 0.49 436.14 0.49L436.14 0.49Q432.65 0.49 429.99-1.2 427.33-2.88 425.91-6.03 424.49-9.18 424.49-13.31L424.49-13.31Q424.49-19.8 427.64-23.43 430.79-27.05 436.29-27.05L436.29-27.05Q441.75-27.05 444.87-23.38 447.98-19.7 447.98-13.31ZM427.03-13.31L427.03-13.31Q427.03-7.84 429.44-4.77 431.84-1.71 436.24-1.71L436.24-1.71Q440.63-1.71 443.04-4.77 445.44-7.84 445.44-13.31L445.44-13.31Q445.44-18.8 443.01-21.83 440.58-24.85 436.19-24.85L436.19-24.85Q431.79-24.85 429.41-21.84 427.03-18.82 427.03-13.31ZM465.78-27.05L465.78-27.05Q467.46-27.05 469.39-26.71L469.39-26.71 468.92-24.39Q467.26-24.8 465.48-24.8L465.48-24.8Q462.09-24.8 459.92-21.92 457.74-19.04 457.74-14.65L457.74-14.65 457.74 0 455.33 0 455.33-26.54 457.38-26.54 457.62-21.75 457.79-21.75Q459.43-24.68 461.28-25.87 463.14-27.05 465.78-27.05ZM491.24-6.91L491.24-6.91Q491.24-3.34 488.53-1.43 485.82 0.49 480.84 0.49L480.84 0.49Q475.51 0.49 472.39-1.15L472.39-1.15 472.39-3.76Q476.39-1.76 480.84-1.76L480.84-1.76Q484.77-1.76 486.81-3.06 488.84-4.37 488.84-6.54L488.84-6.54Q488.84-8.54 487.22-9.91 485.6-11.28 481.89-12.6L481.89-12.6Q477.91-14.04 476.3-15.08 474.68-16.11 473.87-17.42 473.05-18.73 473.05-20.61L473.05-20.61Q473.05-23.58 475.55-25.32 478.05-27.05 482.55-27.05L482.55-27.05Q486.84-27.05 490.7-25.44L490.7-25.44 489.8-23.24Q485.89-24.85 482.55-24.85L482.55-24.85Q479.3-24.85 477.39-23.78 475.49-22.71 475.49-20.8L475.49-20.8Q475.49-18.73 476.97-17.48 478.44-16.24 482.74-14.7L482.74-14.7Q486.33-13.4 487.97-12.37 489.6-11.33 490.42-10.01 491.24-8.69 491.24-6.91ZM531.17-2.29L531.17 0 511.67 0 511.67-35.69 531.17-35.69 531.17-33.4 514.16-33.4 514.16-19.9 530.22-19.9 530.22-17.6 514.16-17.6 514.16-2.29 531.17-2.29ZM535.54 0L545.16-13.65 535.91-26.54 538.69-26.54 546.6-15.36 554.44-26.54 557.1-26.54 547.99-13.65 557.76 0 554.95 0 546.6-11.84 538.2 0 535.54 0ZM574.14 0.49L574.14 0.49Q568.45 0.49 565.23-3.1 562-6.69 562-13.11L562-13.11Q562-19.7 565.35-23.38 568.69-27.05 574.5-27.05L574.5-27.05Q577.95-27.05 581.09-25.85L581.09-25.85 580.44-23.71Q576.99-24.85 574.45-24.85L574.45-24.85Q569.57-24.85 567.06-21.84 564.54-18.82 564.54-13.16L564.54-13.16Q564.54-7.79 567.06-4.75 569.57-1.71 574.09-1.71L574.09-1.71Q577.7-1.71 580.8-3L580.8-3 580.8-0.76Q578.26 0.49 574.14 0.49ZM589.71-37.99L589.71 0 587.29 0 587.29-37.99 589.71-37.99ZM598.3-26.54L600.69-26.54 600.69-9.35Q600.69-5.35 602.38-3.53 604.06-1.71 607.6-1.71L607.6-1.71Q612.34-1.71 614.57-4.1 616.81-6.49 616.81-11.89L616.81-11.89 616.81-26.54 619.2-26.54 619.2 0 617.15 0 616.71-3.66 616.56-3.66Q613.98 0.49 607.36 0.49L607.36 0.49Q598.3 0.49 598.3-9.2L598.3-9.2 598.3-26.54ZM644.54-6.91L644.54-6.91Q644.54-3.34 641.83-1.43 639.12 0.49 634.14 0.49L634.14 0.49Q628.82 0.49 625.69-1.15L625.69-1.15 625.69-3.76Q629.7-1.76 634.14-1.76L634.14-1.76Q638.07-1.76 640.11-3.06 642.15-4.37 642.15-6.54L642.15-6.54Q642.15-8.54 640.52-9.91 638.9-11.28 635.19-12.6L635.19-12.6Q631.21-14.04 629.6-15.08 627.99-16.11 627.17-17.42 626.35-18.73 626.35-20.61L626.35-20.61Q626.35-23.58 628.85-25.32 631.36-27.05 635.85-27.05L635.85-27.05Q640.14-27.05 644-25.44L644-25.44 643.1-23.24Q639.19-24.85 635.85-24.85L635.85-24.85Q632.6-24.85 630.7-23.78 628.79-22.71 628.79-20.8L628.79-20.8Q628.79-18.73 630.27-17.48 631.75-16.24 636.04-14.7L636.04-14.7Q639.63-13.4 641.27-12.37 642.9-11.33 643.72-10.01 644.54-8.69 644.54-6.91ZM653.79-26.54L653.79 0 651.37 0 651.37-26.54 653.79-26.54ZM651.03-33.91L651.03-33.91Q651.03-36.25 652.57-36.25L652.57-36.25Q653.33-36.25 653.75-35.64 654.18-35.03 654.18-33.91L654.18-33.91Q654.18-32.81 653.75-32.18 653.33-31.54 652.57-31.54L652.57-31.54Q651.03-31.54 651.03-33.91ZM670.93 0L668.48 0 658.23-26.54 660.72-26.54 667.58-8.5Q668.95-5.03 669.63-2.44L669.63-2.44 669.78-2.44Q670.78-5.76 671.83-8.54L671.83-8.54 678.69-26.54 681.18-26.54 670.93 0ZM696.34 0.49L696.34 0.49Q690.55 0.49 687.32-3.08 684.08-6.64 684.08-13.06L684.08-13.06Q684.08-19.41 687.21-23.23 690.33-27.05 695.63-27.05L695.63-27.05Q700.32-27.05 703.03-23.78 705.74-20.51 705.74-14.89L705.74-14.89 705.74-12.94 686.62-12.94Q686.67-7.47 689.17-4.59 691.68-1.71 696.34-1.71L696.34-1.71Q698.61-1.71 700.33-2.03 702.05-2.34 704.69-3.39L704.69-3.39 704.69-1.2Q702.44-0.22 700.54 0.13 698.63 0.49 696.34 0.49ZM695.63-24.9L695.63-24.9Q691.8-24.9 689.48-22.38 687.16-19.85 686.77-15.09L686.77-15.09 703.17-15.09Q703.17-19.7 701.17-22.3 699.17-24.9 695.63-24.9ZM715.48-37.99L715.48 0 713.06 0 713.06-37.99 715.48-37.99ZM730.07 0L719.92-26.54 722.41-26.54 728.02-11.65Q730.59-4.79 731.27-2.39L731.27-2.39 731.42-2.39Q732.44-5.54 734.76-11.79L734.76-11.79 740.38-26.54 742.87-26.54 730.98 4.3Q729.54 8.06 728.56 9.38 727.58 10.69 726.28 11.35 724.97 12.01 723.12 12.01L723.12 12.01Q721.72 12.01 720.02 11.5L720.02 11.5 720.02 9.4Q721.43 9.79 723.07 9.79L723.07 9.79Q724.31 9.79 725.26 9.2 726.22 8.62 726.99 7.39 727.75 6.15 728.77 3.48 729.78 0.81 730.07 0L730.07 0Z" opacity="1" transform="matrix(1,0,0,1,0,0)" fill="#000000" class="undefined-text-1" data-fill-palette-color="secondary" id="text-1"></path></svg></g></svg></g></svg></g></svg></g><g><svg viewBox="0 0 161.99319920454548 161.99319920454548" height="161.99319920454548" width="161.99319920454548"><g><svg></svg></g><g id="icon-0"><svg viewBox="0 0 161.99319920454548 161.99319920454548" height="161.99319920454548" width="161.99319920454548"><g><path d="M0 80.997c0-44.733 36.263-80.997 80.997-80.997 44.733 0 80.997 36.263 80.996 80.997 0 44.733-36.263 80.997-80.996 80.996-44.733 0-80.997-36.263-80.997-80.996zM80.997 152.144c39.294 0 71.147-31.854 71.147-71.147 0-39.294-31.854-71.147-71.147-71.148-39.294 0-71.147 31.854-71.148 71.148 0 39.294 31.854 71.147 71.148 71.147z" data-fill-palette-color="accent" fill="#000000" stroke="transparent"></path></g><g transform="matrix(1,0,0,1,41.9299224078565,42.82467226750258)"><svg viewBox="0 0 78.13335438883247 76.34385466954032" height="76.34385466954032" width="78.13335438883247"><g><svg xmlns="http://www.w3.org/2000/svg" xmlns:xlink="http://www.w3.org/1999/xlink" version="1.1" x="0" y="0" viewBox="1.4999990463256836 2.5792977809906006 96.94095611572266 94.720703125" enable-background="new 0 0 100 100" xml:space="preserve" height="76.34385466954032" width="78.13335438883247" class="icon-s-0" data-fill-palette-color="accent" id="s-0"><path d="M1.5 24.4c0-6.7 5.4-12.1 12.1-12.1H55c0.6 0 1 0.4 1 1s-0.4 1-1 1H13.6C8 14.3 3.5 18.8 3.5 24.4v41.2c0 5.6 4.5 10.1 10.1 10.1h8.7c0.6 0 1 0.4 1 1V94l18.8-18c0.2-0.2 0.4-0.3 0.7-0.3h38.2c4.1 0 7.9-2.6 9.4-6.4 0.2-0.5 0.8-0.8 1.3-0.6 0.5 0.2 0.8 0.8 0.6 1.3-1.8 4.6-6.3 7.7-11.3 7.7H43.2L23 97c-0.2 0.2-0.4 0.3-0.7 0.3-0.1 0-0.3 0-0.4-0.1-0.4-0.2-0.6-0.5-0.6-0.9V77.7h-7.7c-6.7 0-12.1-5.4-12.1-12.1V24.4zM98.3 32.3l-3.5 22.2c-0.6 5.1-4.2 8.1-9.9 8.1H58c-3 0-5.5-1.6-7-3.9-0.9 1.4-2.4 2.3-4.1 2.3h-5.6c-2.7 0-4.9-2.2-4.9-4.9V30.9c0-2.7 2.2-4.9 4.9-4.9h5.6c2.7 0 4.9 2.2 4.9 4.9v23.4c0 3.4 2.8 6.2 6.2 6.2H85c3.2 0 7.3-1.1 7.9-6.3L96.4 32c0.2-1.1 0.1-2.2-0.4-3.1-1-2.3-3.2-3.8-5.7-3.8H75.1c-0.6 0-1-0.4-1-1V12.6c0-3.3-0.9-5.6-2.6-6.8-2.1-1.5-4.9-1.2-6.2-0.9v10.2c0 10.6-12.2 14.2-12.4 14.2-0.5 0.2-1.1-0.2-1.2-0.7s0.2-1.1 0.7-1.2c0.4-0.1 10.9-3.2 10.9-12.3v-11c0-0.4 0.3-0.8 0.7-1 0.2-0.1 5.1-1.6 8.7 1 2.2 1.6 3.4 4.5 3.4 8.4V23h14.2c3.3 0 6.3 2 7.6 5C98.4 29.4 98.6 30.8 98.3 32.3zM49.8 30.9c0-1.6-1.3-2.9-2.9-2.9h-5.6c-1.6 0-2.9 1.3-2.9 2.9V56c0 1.6 1.3 2.9 2.9 2.9h5.6c1.6 0 2.9-1.3 2.9-2.9V30.9z" fill="#000000" data-fill-palette-color="accent"></path></svg></g></svg></g></svg></g></svg></g></svg></g><defs></defs></svg><rect width="395.52" height="105.19405637260304" fill="none" stroke="none" visibility="hidden"></rect></g></svg></g></svg>