<svg class="animated" id="freepik_stories-upvote" xmlns="http://www.w3.org/2000/svg" viewBox="0 0 500 500" version="1.1" xmlns:xlink="http://www.w3.org/1999/xlink" xmlns:svgjs="http://svgjs.com/svgjs"><style>svg#freepik_stories-upvote:not(.animated) .animable {opacity: 0;}svg#freepik_stories-upvote.animated #freepik--Upvote--inject-47 {animation: 1.5s Infinite  linear floating;animation-delay: 0s;}            @keyframes floating {                0% {                    opacity: 1;                    transform: translateY(0px);                }                50% {                    transform: translateY(-10px);                }                100% {                    opacity: 1;                    transform: translateY(0px);                }            }        </style><g id="freepik--background-complete--inject-47" class="animable" style="transform-origin: 250px 226.87px;"><rect y="382.4" width="500" height="0.25" style="fill: rgb(235, 235, 235); transform-origin: 250px 382.525px;" id="eljrc3mitt5e" class="animable"></rect><path d="M237,337.8H43.91a5.71,5.71,0,0,1-5.7-5.71V60.66A5.71,5.71,0,0,1,43.91,55H237a5.71,5.71,0,0,1,5.71,5.71V332.09A5.71,5.71,0,0,1,237,337.8ZM43.91,55.2a5.46,5.46,0,0,0-5.45,5.46V332.09a5.46,5.46,0,0,0,5.45,5.46H237a5.47,5.47,0,0,0,5.46-5.46V60.66A5.47,5.47,0,0,0,237,55.2Z" style="fill: rgb(235, 235, 235); transform-origin: 140.46px 196.4px;" id="elzp24ihxdwi" class="animable"></path><path d="M453.31,337.8H260.21a5.72,5.72,0,0,1-5.71-5.71V60.66A5.72,5.72,0,0,1,260.21,55h193.1A5.71,5.71,0,0,1,459,60.66V332.09A5.71,5.71,0,0,1,453.31,337.8ZM260.21,55.2a5.47,5.47,0,0,0-5.46,5.46V332.09a5.47,5.47,0,0,0,5.46,5.46h193.1a5.47,5.47,0,0,0,5.46-5.46V60.66a5.47,5.47,0,0,0-5.46-5.46Z" style="fill: rgb(235, 235, 235); transform-origin: 356.75px 196.4px;" id="elhh4ftfn21l" class="animable"></path><rect x="52.46" y="398.49" width="33.21" height="0.25" style="fill: rgb(235, 235, 235); transform-origin: 69.065px 398.615px;" id="eldetpbzuz6b6" class="animable"></rect><rect x="146.33" y="397.5" width="54.1" height="0.25" style="fill: rgb(235, 235, 235); transform-origin: 173.38px 397.625px;" id="elfq5wu6he8ih" class="animable"></rect><rect x="86.67" y="389.21" width="19.11" height="0.25" style="fill: rgb(235, 235, 235); transform-origin: 96.225px 389.335px;" id="elgla2ijetlbv" class="animable"></rect><rect x="435.12" y="390.89" width="14.78" height="0.25" style="fill: rgb(235, 235, 235); transform-origin: 442.51px 391.015px;" id="elzp5mqb70ge" class="animable"></rect><rect x="391.47" y="390.89" width="34.74" height="0.25" style="fill: rgb(235, 235, 235); transform-origin: 408.84px 391.015px;" id="elfy3odjht7nb" class="animable"></rect><rect x="267.33" y="395.11" width="45.45" height="0.25" style="fill: rgb(235, 235, 235); transform-origin: 290.055px 395.235px;" id="el922ued2pz8" class="animable"></rect><rect x="145.06" y="85.62" width="59.38" height="135.04" style="fill: rgb(230, 230, 230); transform-origin: 174.75px 153.14px;" id="elfq83c9vwbog" class="animable"></rect><rect x="148.68" y="85.62" width="59.38" height="135.04" style="fill: rgb(245, 245, 245); transform-origin: 178.37px 153.14px;" id="elncba0n48mx" class="animable"></rect><g id="el0y7s6almwh3"><rect x="116.93" y="129.96" width="122.88" height="46.36" style="fill: rgb(255, 255, 255); transform-origin: 178.37px 153.14px; transform: rotate(90deg);" class="animable"></rect></g><g id="elzcyj6tt323t"><rect x="138.74" y="151.77" width="122.88" height="2.74" style="fill: rgb(230, 230, 230); transform-origin: 200.18px 153.14px; transform: rotate(90deg);" class="animable"></rect></g><rect x="151.38" y="178.09" width="53.99" height="8.16" style="fill: rgb(245, 245, 245); transform-origin: 178.375px 182.17px;" id="elqqwr5ydsbo" class="animable"></rect><rect x="151.38" y="102.42" width="53.99" height="8.16" style="fill: rgb(245, 245, 245); transform-origin: 178.375px 106.5px;" id="elb6lfoyw7l7" class="animable"></rect><rect x="225.12" y="85.62" width="59.38" height="135.04" style="fill: rgb(230, 230, 230); transform-origin: 254.81px 153.14px;" id="elng0jzm5avb" class="animable"></rect><rect x="228.74" y="85.62" width="59.38" height="135.04" style="fill: rgb(245, 245, 245); transform-origin: 258.43px 153.14px;" id="el22zie2pdc6i" class="animable"></rect><g id="eltcxg8k2h7k"><rect x="196.99" y="129.96" width="122.88" height="46.36" style="fill: rgb(255, 255, 255); transform-origin: 258.43px 153.14px; transform: rotate(90deg);" class="animable"></rect></g><g id="el5fcpchuk1ex"><rect x="218.8" y="151.77" width="122.88" height="2.74" style="fill: rgb(230, 230, 230); transform-origin: 280.24px 153.14px; transform: rotate(90deg);" class="animable"></rect></g><rect x="231.44" y="178.09" width="53.99" height="8.16" style="fill: rgb(245, 245, 245); transform-origin: 258.435px 182.17px;" id="elnpqdzzz8858" class="animable"></rect><rect x="231.44" y="102.42" width="53.99" height="8.16" style="fill: rgb(245, 245, 245); transform-origin: 258.435px 106.5px;" id="elb2h47ogh0z" class="animable"></rect><rect x="65" y="85.62" width="59.38" height="135.04" style="fill: rgb(230, 230, 230); transform-origin: 94.69px 153.14px;" id="elw2qtiwlwf" class="animable"></rect><rect x="68.63" y="85.62" width="59.38" height="135.04" style="fill: rgb(245, 245, 245); transform-origin: 98.32px 153.14px;" id="elrxk44z3snp" class="animable"></rect><g id="el7hjp81bcwzr"><rect x="36.88" y="129.96" width="122.88" height="46.36" style="fill: rgb(255, 255, 255); transform-origin: 98.32px 153.14px; transform: rotate(90deg);" class="animable"></rect></g><g id="el3lc58lq1jbq"><rect x="58.68" y="151.77" width="122.88" height="2.74" style="fill: rgb(230, 230, 230); transform-origin: 120.12px 153.14px; transform: rotate(90deg);" class="animable"></rect></g><rect x="71.32" y="178.09" width="53.99" height="8.16" style="fill: rgb(245, 245, 245); transform-origin: 98.315px 182.17px;" id="elu43rnuf89c" class="animable"></rect><rect x="71.32" y="102.42" width="53.99" height="8.16" style="fill: rgb(245, 245, 245); transform-origin: 98.315px 106.5px;" id="el7jxkabfrda8" class="animable"></rect><rect x="309.13" y="285.01" width="22.69" height="97.39" style="fill: rgb(230, 230, 230); transform-origin: 320.475px 333.705px;" id="el89y2hie3kma" class="animable"></rect><polygon points="327.51 382.4 331.81 382.4 331.81 370.14 322.99 370.14 327.51 382.4" style="fill: rgb(240, 240, 240); transform-origin: 327.4px 376.27px;" id="elbewsbacshys" class="animable"></polygon><rect x="195.1" y="285.01" width="22.69" height="97.39" style="fill: rgb(230, 230, 230); transform-origin: 206.445px 333.705px;" id="elilfk45j1uos" class="animable"></rect><rect x="214.02" y="285.01" width="117.79" height="91.36" style="fill: rgb(240, 240, 240); transform-origin: 272.915px 330.69px;" id="el52lt3wfhvme" class="animable"></rect><path d="M328.47,288.58h-54.1v71h54.1v-71Z" style="fill: rgb(230, 230, 230); transform-origin: 301.42px 324.08px;" id="eltbve33mbanc" class="animable"></path><path d="M271.47,288.58h-54.1v71h54.1v-71Z" style="fill: rgb(230, 230, 230); transform-origin: 244.42px 324.08px;" id="elgdxdtactill" class="animable"></path><path d="M259.37,297.73a3.83,3.83,0,1,0,3.83-3.83A3.83,3.83,0,0,0,259.37,297.73Z" style="fill: rgb(250, 250, 250); transform-origin: 263.2px 297.73px;" id="elvhsxt5v80lg" class="animable"></path><path d="M278.81,297.73a3.83,3.83,0,1,0,3.83-3.83A3.82,3.82,0,0,0,278.81,297.73Z" style="fill: rgb(250, 250, 250); transform-origin: 282.64px 297.73px;" id="elgv9mtz1usz4" class="animable"></path><polygon points="218.33 382.4 214.02 382.4 214.02 370.14 222.85 370.14 218.33 382.4" style="fill: rgb(240, 240, 240); transform-origin: 218.435px 376.27px;" id="elxzh0tyzqkoe" class="animable"></polygon><rect x="179.03" y="247.44" width="22.69" height="134.95" style="fill: rgb(230, 230, 230); transform-origin: 190.375px 314.915px;" id="el4x7t92al088" class="animable"></rect><polygon points="197.41 382.4 201.71 382.4 201.71 370.14 192.89 370.14 197.41 382.4" style="fill: rgb(240, 240, 240); transform-origin: 197.3px 376.27px;" id="eltrxmodyh67n" class="animable"></polygon><rect x="65" y="247.44" width="22.69" height="134.95" style="fill: rgb(230, 230, 230); transform-origin: 76.345px 314.915px;" id="el69e8fstovj7" class="animable"></rect><rect x="83.92" y="247.44" width="117.79" height="127.43" style="fill: rgb(240, 240, 240); transform-origin: 142.815px 311.155px;" id="eleww73yz7bmq" class="animable"></rect><path d="M198.37,250.79H87.27v24.14h111.1V250.79Z" style="fill: rgb(230, 230, 230); transform-origin: 142.82px 262.86px;" id="elndptjcqj3j" class="animable"></path><path d="M198.37,277.69H144.26v81.87h54.11V277.69Z" style="fill: rgb(230, 230, 230); transform-origin: 171.315px 318.625px;" id="elemjne8dei5k" class="animable"></path><path d="M141.37,277.69H87.27v81.87h54.1V277.69Z" style="fill: rgb(230, 230, 230); transform-origin: 114.32px 318.625px;" id="elo7gcwmu37j" class="animable"></path><path d="M129.27,316.69a3.83,3.83,0,1,0,3.83-3.83A3.82,3.82,0,0,0,129.27,316.69Z" style="fill: rgb(250, 250, 250); transform-origin: 133.1px 316.69px;" id="elfjk3ut9gje8" class="animable"></path><path d="M148.71,316.69a3.83,3.83,0,1,0,3.83-3.83A3.82,3.82,0,0,0,148.71,316.69Z" style="fill: rgb(250, 250, 250); transform-origin: 152.54px 316.69px;" id="elbdjnyjq9dgc" class="animable"></path><polygon points="88.23 382.4 83.92 382.4 83.92 370.14 92.75 370.14 88.23 382.4" style="fill: rgb(240, 240, 240); transform-origin: 88.335px 376.27px;" id="eltp8wj8uejro" class="animable"></polygon><path d="M139.49,263a3.83,3.83,0,1,0,3.83-3.83A3.83,3.83,0,0,0,139.49,263Z" style="fill: rgb(250, 250, 250); transform-origin: 143.32px 263px;" id="eljc1ettwnl2" class="animable"></path><polygon points="315.88 152 319.91 152 333.72 139.77 317.23 139.77 315.88 152" style="fill: rgb(230, 230, 230); transform-origin: 324.8px 145.885px;" id="el8qc25ffte59" class="animable"></polygon><polygon points="318.22 152 322.25 152 336.06 139.77 332.02 139.77 318.22 152" style="fill: rgb(245, 245, 245); transform-origin: 327.14px 145.885px;" id="eld4mtug1ywgf" class="animable"></polygon><polygon points="413.65 152 417.68 152 431.5 139.77 415 139.77 413.65 152" style="fill: rgb(230, 230, 230); transform-origin: 422.575px 145.885px;" id="elgmqs7txyksd" class="animable"></polygon><polygon points="415.99 152 420.02 152 433.83 139.77 429.8 139.77 415.99 152" style="fill: rgb(245, 245, 245); transform-origin: 424.91px 145.885px;" id="elahbl7v1p8bw" class="animable"></polygon><g id="elswoy763psxd"><rect x="305.92" y="133.48" width="26.87" height="6.29" style="fill: rgb(230, 230, 230); transform-origin: 319.355px 136.625px; transform: rotate(180deg);" class="animable"></rect></g><rect x="332.79" y="133.48" width="111.22" height="6.29" style="fill: rgb(245, 245, 245); transform-origin: 388.4px 136.625px;" id="elgy8plvku83b" class="animable"></rect><path d="M404.25,95H391.79s2.16,8.58,2.16,13.62-9.48,24.83,4.07,24.83,4.06-19.78,4.06-24.83S404.25,95,404.25,95Z" style="fill: rgb(230, 230, 230); transform-origin: 398.018px 114.225px;" id="el91bfx1qat6i" class="animable"></path><path d="M421.83,95H409.37s2.16,8.58,2.16,13.62-9.48,24.83,4.07,24.83,4.07-19.78,4.07-24.83S421.83,95,421.83,95Z" style="fill: rgb(230, 230, 230); transform-origin: 415.6px 114.225px;" id="el0r6dz2iluioi" class="animable"></path><path d="M347.41,118.7c0,8.13,8.93,14.78,19.85,14.78h9.86c10.92,0,19.86-6.65,19.86-14.78Z" style="fill: rgb(240, 240, 240); transform-origin: 372.195px 126.09px;" id="el9zt6qwdz0vm" class="animable"></path><polygon points="315.88 208 319.91 208 333.72 195.77 317.23 195.77 315.88 208" style="fill: rgb(230, 230, 230); transform-origin: 324.8px 201.885px;" id="elfrod111gg2b" class="animable"></polygon><polygon points="318.22 208 322.25 208 336.06 195.77 332.02 195.77 318.22 208" style="fill: rgb(245, 245, 245); transform-origin: 327.14px 201.885px;" id="elsvd29ff5pqa" class="animable"></polygon><polygon points="413.65 208 417.68 208 431.5 195.77 415 195.77 413.65 208" style="fill: rgb(230, 230, 230); transform-origin: 422.575px 201.885px;" id="elchbh5t9yyp" class="animable"></polygon><polygon points="415.99 208 420.02 208 433.83 195.77 429.8 195.77 415.99 208" style="fill: rgb(245, 245, 245); transform-origin: 424.91px 201.885px;" id="elyyvsfhr2dhg" class="animable"></polygon><g id="el7sqvhr7y87f"><rect x="305.92" y="189.48" width="26.87" height="6.28" style="fill: rgb(230, 230, 230); transform-origin: 319.355px 192.62px; transform: rotate(180deg);" class="animable"></rect></g><rect x="332.79" y="189.48" width="111.22" height="6.28" style="fill: rgb(245, 245, 245); transform-origin: 388.4px 192.62px;" id="el7xb7fvj4i8q" class="animable"></rect><path d="M354.12,176.3c0,7.25,10.46,13.18,23.25,13.18h11.54c12.79,0,23.25-5.93,23.25-13.18Z" style="fill: rgb(224, 224, 224); transform-origin: 383.14px 182.89px;" id="el5yx46m2m5ak" class="animable"></path><path d="M337.71,152.37H357.1s-3.36,16.78-3.36,20.21,14.75,16.9-6.33,16.9-6.33-13.46-6.33-16.9S337.71,152.37,337.71,152.37Z" style="fill: rgb(245, 245, 245); transform-origin: 347.41px 170.925px;" id="elvs8s5tb1f" class="animable"></path><path d="M399.57,276.16c5.95.78,11.43,5.31,9.56,11.45-3.08,10.16,11.73,9.22,12.1,25.11.53,22.43-22.32,7.49-20.75,28.81,1.15,15.51-20.56,30.19-27.19,10.79-7.27-21.23-13.76-5.1-23-28.47-6.4-16.16,15.94-23.19,7.57-27-6.11-2.76-11-8.72-5.27-14.62,7.77-8-2.62-11,2.63-16.55s8.28,1,17.4-4.32c8.15-4.77,18.41,2.76,18.26,8.79C390.73,275.82,393.58,275.37,399.57,276.16Z" style="fill: rgb(230, 230, 230); transform-origin: 385.18px 310.723px;" id="elf9zso5s9iyg" class="animable"></path><path d="M411.28,345.66s-.73,36.74-28.81,36.74-28.82-36.74-28.82-36.74Z" style="fill: rgb(240, 240, 240); transform-origin: 382.465px 364.03px;" id="el5p1bmyn5non" class="animable"></path></g><g id="freepik--Shadow--inject-47" class="animable" style="transform-origin: 250px 416.24px;"><ellipse id="freepik--path--inject-47" cx="250" cy="416.24" rx="193.89" ry="11.32" style="fill: rgb(245, 245, 245); transform-origin: 250px 416.24px;" class="animable"></ellipse></g><g id="freepik--Upvote--inject-47" class="animable animator-active" style="transform-origin: 160.278px 249.069px;"><g id="elnhh7mxbvv89"><rect x="98.59" y="235.01" width="60.59" height="30.03" rx="4.88" style="fill: rgb(38, 50, 56); transform-origin: 128.885px 250.025px; transform: rotate(-71.98deg);" class="animable"></rect></g><g id="el06xcfoyghv8v"><rect x="98.59" y="235.01" width="60.59" height="30.03" rx="4.88" style="opacity: 0.3; transform-origin: 128.885px 250.025px; transform: rotate(-71.98deg);" class="animable"></rect></g><path d="M203.14,242.91l-18.77-6.11.72.23c1.3-2.68.82-4.32,2.38-6.86,2-3.09,5.29-6.73,7.95-12.61,2-4.4,1.74-20.62,1.74-20.62s-3.27-1.1-3.88-1.25c-3.79-1-5.87,2.69-7.39,8-1.77,6.17-13.42,13.57-20.9,17.39s-16.17,9.46-16.22,9.5h0L135.09,274h0l5.9,5.66a44.4,44.4,0,0,0,14,8.54L185.21,298Z" style="fill: rgb(38, 50, 56); transform-origin: 169.115px 246.763px;" id="elsviikkbp1bl" class="animable"></path><path d="M215.14,250.68a3.68,3.68,0,0,0-2.36-4.64l-24.07-7.82v0c1.3-2.68,1.54-4.08,3.1-6.62,2-3.09,5.29-6.73,7.95-12.61s4.14-18.4-.92-21.29-6.85,1.26-8.62,7.44-13.41,13.57-20.9,17.39S153.16,232,153.11,232h0L139.43,275.4h0l5.9,5.66a44.54,44.54,0,0,0,14,8.55l33.38,10.85a3.67,3.67,0,0,0,4.64-2.36l.82-2.52a3.67,3.67,0,0,0-1.56-4.27l-1.12-1.1a.79.79,0,0,1,.52-1.42l2.87.2c1.72.17,4-.65,4.58-2.29l1.59-4.9a3.68,3.68,0,0,0-1.51-4.24l-2.78-1.9a.79.79,0,0,1,.44-1.44l4.52-.06a3.68,3.68,0,0,0,3.45-2.54l1.72-5.3a3.69,3.69,0,0,0-1.4-4.17L206,259.74a.79.79,0,0,1,.45-1.44l3.4,0a3.69,3.69,0,0,0,3.66-2.54Z" style="fill: rgb(64, 123, 255); transform-origin: 177.376px 248.703px;" id="elx2buro9l0lh" class="animable"></path><g id="elthy6h3tcx2"><path d="M215.14,250.68a3.68,3.68,0,0,0-2.36-4.64l-24.07-7.82v0c1.3-2.68,1.54-4.08,3.1-6.62,2-3.09,5.29-6.73,7.95-12.61s4.14-18.4-.92-21.29-6.85,1.26-8.62,7.44-13.41,13.57-20.9,17.39S153.16,232,153.11,232h0L139.43,275.4h0l5.9,5.66a44.54,44.54,0,0,0,14,8.55l33.38,10.85a3.67,3.67,0,0,0,4.64-2.36l.82-2.52a3.67,3.67,0,0,0-1.56-4.27l-1.12-1.1a.79.79,0,0,1,.52-1.42l2.87.2c1.72.17,4-.65,4.58-2.29l1.59-4.9a3.68,3.68,0,0,0-1.51-4.24l-2.78-1.9a.79.79,0,0,1,.44-1.44l4.52-.06a3.68,3.68,0,0,0,3.45-2.54l1.72-5.3a3.69,3.69,0,0,0-1.4-4.17L206,259.74a.79.79,0,0,1,.45-1.44l3.4,0a3.69,3.69,0,0,0,3.66-2.54Z" style="opacity: 0.4; transform-origin: 177.376px 248.703px;" class="animable"></path></g><g id="elkqo4k7pxlz"><rect x="102.21" y="236.18" width="60.59" height="30.03" rx="4.88" style="fill: rgb(38, 50, 56); transform-origin: 132.505px 251.195px; transform: rotate(-71.98deg);" class="animable"></rect></g><g id="elgthbw2juccf"><rect x="170.03" y="292.42" width="1.06" height="6.02" style="fill: rgb(64, 123, 255); transform-origin: 170.56px 295.43px; transform: rotate(-73.25deg);" class="animable"></rect></g><g id="elccmkgp256x"><rect x="170.03" y="292.42" width="1.06" height="6.02" style="opacity: 0.4; transform-origin: 170.56px 295.43px; transform: rotate(-73.25deg);" class="animable"></rect></g><g id="elhq7nyu4io2"><rect x="185.29" y="292.83" width="1.06" height="14.4" style="fill: rgb(64, 123, 255); transform-origin: 185.82px 300.03px; transform: rotate(-73.25deg);" class="animable"></rect></g><g id="elk0izjo0rnvg"><rect x="185.29" y="292.83" width="1.06" height="14.4" style="opacity: 0.4; transform-origin: 185.82px 300.03px; transform: rotate(-73.25deg);" class="animable"></rect></g></g><g id="freepik--Character--inject-47" class="animable" style="transform-origin: 279.367px 263.864px;"><path d="M239.27,123.37c-4.9,1.51-8.13,21,2,27.3s32.38-3.13,32.38-3.13-3.37-4-2.25-14.63c1.1-10.41,1.55-24-15.75-21C244.37,113.81,238.49,120,239.27,123.37Z" style="fill: rgb(38, 50, 56); transform-origin: 254.137px 132.163px;" id="el5koppubq0uv" class="animable"></path><path d="M282.31,171.34c.23,2.44.52,5.11.89,7.66s.75,5.15,1.26,7.69a99,99,0,0,0,4,14.84l.67,1.76c.12.32.2.48.3.72s.23.46.35.7a26.08,26.08,0,0,0,1.87,2.95,72.25,72.25,0,0,0,4.86,5.9c1.73,1.94,3.54,3.85,5.41,5.72s3.77,3.76,5.66,5.59l-2.68,3.45a113.84,113.84,0,0,1-13.15-10,64.48,64.48,0,0,1-6-6,30.21,30.21,0,0,1-2.74-3.65c-.21-.36-.42-.69-.62-1.07s-.43-.8-.55-1.1l-.88-2a72.13,72.13,0,0,1-2.92-8c-.86-2.68-1.5-5.4-2.11-8.12s-1.11-5.45-1.5-8.19-.73-5.45-.89-8.37Z" style="fill: rgb(255, 181, 115); transform-origin: 290.56px 199.83px;" id="elckluryfdbi7" class="animable"></path><path d="M279.52,161.39c3.55.9,6,15.52,6,15.52L272,186.15s-5.59-17.33-2.86-21.23C272,160.85,274.33,160.07,279.52,161.39Z" style="fill: rgb(38, 50, 56); transform-origin: 276.954px 173.475px;" id="el6cyhjftofp6" class="animable"></path><g id="eldr18f7la31r"><polygon points="279.2 164.65 281.93 179.39 276.42 183.12 279.2 164.65" style="opacity: 0.2; transform-origin: 279.175px 173.885px;" class="animable"></polygon></g><polygon points="271.22 187.65 286.49 176.71 286.18 175.3 270.19 186.05 271.22 187.65" style="fill: rgb(64, 123, 255); transform-origin: 278.34px 181.475px;" id="elcb81w6s5ou7" class="animable"></polygon><polygon points="260.3 407.44 268.92 407.44 269.49 387.48 260.87 387.48 260.3 407.44" style="fill: rgb(255, 181, 115); transform-origin: 264.895px 397.46px;" id="elfdfkft17bw" class="animable"></polygon><polygon points="200.69 382.04 208.67 385.29 218.78 367.86 210.8 364.6 200.69 382.04" style="fill: rgb(255, 181, 115); transform-origin: 209.735px 374.945px;" id="elew99izr7rsn" class="animable"></polygon><path d="M210.17,384.1l-8.32-5a.67.67,0,0,0-.89.16l-4.86,6a1.37,1.37,0,0,0,.4,2c2.93,1.68,4.43,2.34,8.09,4.51,2.26,1.34,7.55,5.93,10.66,7.77s5.1-1.12,4-2.17a29.59,29.59,0,0,1-8.08-12.17A2.17,2.17,0,0,0,210.17,384.1Z" style="fill: rgb(38, 50, 56); transform-origin: 207.691px 389.563px;" id="elavfb7qz6alb" class="animable"></path><path d="M269.21,406.44h-9.68a.68.68,0,0,0-.69.59l-1.1,7.66a1.38,1.38,0,0,0,1.38,1.53c3.37-.06,5-.25,9.26-.25,2.62,0,8,.27,11.66.27s3.81-3.58,2.3-3.9c-6.75-1.46-9.41-3.46-11.69-5.37A2.21,2.21,0,0,0,269.21,406.44Z" style="fill: rgb(38, 50, 56); transform-origin: 270.486px 411.34px;" id="el5ssilvwh0ti" class="animable"></path><g id="el5dofr9rwym5"><g style="opacity: 0.2; transform-origin: 237.535px 381.19px;" class="animable"><polygon points="269.49 387.48 269.19 397.77 260.57 397.77 260.87 387.48 269.49 387.48" id="elhyg00ild7i6" class="animable" style="transform-origin: 265.03px 392.625px;"></polygon><polygon points="210.8 364.61 218.78 367.87 213.56 376.85 205.58 373.59 210.8 364.61" id="elrzbsrhx4ai" class="animable" style="transform-origin: 212.18px 370.73px;"></polygon></g></g><path d="M279.52,161.39s4.1,1.44-4.12,52h-35c.59-14.25.61-23-6.2-52.27a102.59,102.59,0,0,1,14.86-2,112.37,112.37,0,0,1,15.9,0C271.77,159.8,279.52,161.39,279.52,161.39Z" style="fill: rgb(38, 50, 56); transform-origin: 257.371px 186.114px;" id="ele3yzotzz1p4" class="animable"></path><path d="M250.63,141.28c1,5.12,2,14.49-1.58,17.9a37,37,0,0,0,14.05,14c7.1-5.67,1.85-14,1.85-14-5.71-1.36-5.56-5.59-4.57-9.57Z" style="fill: rgb(255, 181, 115); transform-origin: 257.934px 157.23px;" id="eloi0qhfg90qa" class="animable"></path><g id="el8yrolbwi0va"><path d="M254.6,144.68l5.78,4.93a16.5,16.5,0,0,0-.49,2.82c-2.18-.31-5.61-2.17-6.07-4.54C253.6,146.77,254.42,145.21,254.6,144.68Z" style="opacity: 0.2; transform-origin: 257.081px 148.555px;" class="animable"></path></g><path d="M242.05,133.07c2.37,8.22,3.19,11.75,8.35,15.09,7.76,5,17.34.33,17.48-8.44.13-7.88-3.76-20-12.65-21.5A11.67,11.67,0,0,0,242.05,133.07Z" style="fill: rgb(255, 181, 115); transform-origin: 254.721px 134.127px;" id="elm6sxn65alu" class="animable"></path><path d="M246.68,127.45c2.06,2.94-.21,11-3.59,11.76-2.71.56-4.18-3.91-4.66-5.71a3.47,3.47,0,0,1-.07-1.4l.89-5.82a3.49,3.49,0,0,1,1.17-2.12l6.35-5.48a3.47,3.47,0,0,1,1.71-.8l9-1.49a3.48,3.48,0,0,1,1.94.23h0a3.49,3.49,0,0,1,1,5.79A18.71,18.71,0,0,1,246.68,127.45Z" style="fill: rgb(38, 50, 56); transform-origin: 249.936px 127.8px;" id="elniyama0eryj" class="animable"></path><path d="M275.4,213.41s6.8,66.39,6.23,92.68C281,333.43,271,395.78,271,395.78H259.37s1.84-60.76.81-87.61c-1.12-29.27-10.42-94.76-10.42-94.76Z" style="fill: rgb(64, 123, 255); transform-origin: 265.712px 304.595px;" id="elphcl10hpz1k" class="animable"></path><g id="elrqya5xv8rtq"><path d="M275.4,213.41s6.8,66.39,6.23,92.68C281,333.43,271,395.78,271,395.78H259.37s1.84-60.76.81-87.61c-1.12-29.27-10.42-94.76-10.42-94.76Z" style="fill: rgb(255, 255, 255); opacity: 0.4; transform-origin: 265.712px 304.595px;" class="animable"></path></g><polygon points="258.36 396.2 272.04 396.2 273.04 391.83 257.73 391.3 258.36 396.2" style="fill: rgb(38, 50, 56); transform-origin: 265.385px 393.75px;" id="el2pupiflgdmd" class="animable"></polygon><g id="elgi0ft8h9zfs"><path d="M260.3,229.93c8.6,17.29,1.72,48.85-1.32,60.58-1.56-17.63-4.18-39.18-6.23-55C254.05,226.55,256.33,222,260.3,229.93Z" style="opacity: 0.2; transform-origin: 258.61px 258.176px;" class="animable"></path></g><path d="M266.15,213.41s-7.93,69-13.91,91.18c-7.11,26.31-36,71.2-36,71.2l-10.89-4.44s18.65-51.11,24.09-65c11.6-29.58,1.67-73.67,10.94-93Z" style="fill: rgb(64, 123, 255); transform-origin: 235.75px 294.57px;" id="el4ga0s0xvtn4" class="animable"></path><g id="el6u7krhepeo8"><path d="M266.15,213.41s-7.93,69-13.91,91.18c-7.11,26.31-36,71.2-36,71.2l-10.89-4.44s18.65-51.11,24.09-65c11.6-29.58,1.67-73.67,10.94-93Z" style="fill: rgb(255, 255, 255); opacity: 0.4; transform-origin: 235.75px 294.57px;" class="animable"></path></g><polygon points="203.88 371.41 217.38 376.92 220.55 373.26 204.96 366.06 203.88 371.41" style="fill: rgb(38, 50, 56); transform-origin: 212.215px 371.49px;" id="eldft3pzj4ia" class="animable"></polygon><path d="M255.84,132.33c.15.67.63,1.14,1.07,1s.68-.73.53-1.41-.63-1.15-1.07-1.05S255.69,131.65,255.84,132.33Z" style="fill: rgb(38, 50, 56); transform-origin: 256.64px 132.106px;" id="elynmxozxt259" class="animable"></path><path d="M263.51,130.62c.15.68.63,1.15,1.07,1s.68-.73.53-1.41-.63-1.15-1.07-1S263.36,129.94,263.51,130.62Z" style="fill: rgb(38, 50, 56); transform-origin: 264.31px 130.415px;" id="elhzm4sy8xkhf" class="animable"></path><path d="M263.85,129.29l1.52-.83S264.82,129.92,263.85,129.29Z" style="fill: rgb(38, 50, 56); transform-origin: 264.61px 128.954px;" id="elq4le4puy4d" class="animable"></path><path d="M261.41,132.37a18.49,18.49,0,0,0,3.39,3.79,3,3,0,0,1-2.32,1Z" style="fill: rgb(237, 137, 62); transform-origin: 263.105px 134.766px;" id="el213o0f0f1bu" class="animable"></path><path d="M259.37,140.63a6.27,6.27,0,0,0,1-.14.22.22,0,0,0,.16-.25.2.2,0,0,0-.24-.15,5.51,5.51,0,0,1-4.86-1.13.19.19,0,0,0-.28,0,.21.21,0,0,0,0,.29A5.67,5.67,0,0,0,259.37,140.63Z" style="fill: rgb(38, 50, 56); transform-origin: 257.813px 139.775px;" id="el33w4a5tiq88" class="animable"></path><path d="M241.51,141.27a6.24,6.24,0,0,0,4,2.62c2.16.4,3-1.58,2.28-3.51-.69-1.74-2.64-4-4.73-3.56A2.81,2.81,0,0,0,241.51,141.27Z" style="fill: rgb(255, 181, 115); transform-origin: 244.482px 140.353px;" id="elhpj3rxq62ec" class="animable"></path><path d="M252.64,129.33a.42.42,0,0,0,.46-.15c1.11-1.53,3.54-1.51,3.56-1.51a.41.41,0,0,0,.42-.4.42.42,0,0,0-.4-.42c-.12,0-2.89,0-4.24,1.85a.4.4,0,0,0,.09.57A.24.24,0,0,0,252.64,129.33Z" style="fill: rgb(38, 50, 56); transform-origin: 254.719px 128.099px;" id="el8m2rbd1vcql" class="animable"></path><path d="M265.1,125a.42.42,0,0,0,.34-.22.41.41,0,0,0-.18-.55,4,4,0,0,0-3.72-.06.4.4,0,0,0-.15.56.41.41,0,0,0,.55.15,3.2,3.2,0,0,1,2.95.08A.39.39,0,0,0,265.1,125Z" style="fill: rgb(38, 50, 56); transform-origin: 263.408px 124.371px;" id="eltfr8e179qm" class="animable"></path><path d="M213.48,387.37l.1,0a1.15,1.15,0,0,0,.85-.76.7.7,0,0,0-.06-.7c-.63-.9-3.74-.79-4.09-.77a.21.21,0,0,0-.19.13.2.2,0,0,0,0,.22C210.94,386.24,212.41,387.49,213.48,387.37Zm-2.69-1.86c1.24,0,2.92.14,3.25.61a.29.29,0,0,1,0,.31.75.75,0,0,1-.55.52C212.92,387.08,211.93,386.54,210.79,385.51Z" style="fill: rgb(64, 123, 255); transform-origin: 212.277px 386.252px;" id="elp3to7wptcn8" class="animable"></path><path d="M210.6,385.51c1.06-.12,3-.85,3.25-1.7a.72.72,0,0,0-.3-.84,1.06,1.06,0,0,0-.88-.2c-1.23.23-2.51,2.36-2.56,2.45a.18.18,0,0,0,0,.2.18.18,0,0,0,.17.11Zm2.21-2.35a.63.63,0,0,1,.49.14c.21.16.2.28.17.38-.2.57-1.76,1.27-2.8,1.41.47-.68,1.34-1.78,2.08-1.92Z" style="fill: rgb(64, 123, 255); transform-origin: 211.984px 384.138px;" id="el8pp9tjnk74n" class="animable"></path><path d="M272.45,408a3.31,3.31,0,0,0,2.09-.53,1.17,1.17,0,0,0,.37-1,.69.69,0,0,0-.35-.54c-1.06-.58-4.49,1.17-4.88,1.38a.2.2,0,0,0-.11.21.21.21,0,0,0,.16.17A15.33,15.33,0,0,0,272.45,408Zm1.53-1.79a.8.8,0,0,1,.38.08.24.24,0,0,1,.14.22.74.74,0,0,1-.23.65c-.53.47-1.95.55-3.86.24A11.17,11.17,0,0,1,274,406.16Z" style="fill: rgb(64, 123, 255); transform-origin: 272.243px 406.912px;" id="elmeys6ena30o" class="animable"></path><path d="M269.77,407.64a.15.15,0,0,0,.09,0c1-.46,3.06-2.32,2.9-3.3,0-.23-.2-.51-.77-.57a1.44,1.44,0,0,0-1.13.35c-1.08.9-1.28,3.22-1.29,3.32a.21.21,0,0,0,.09.18A.15.15,0,0,0,269.77,407.64Zm2.06-3.49H272c.37,0,.4.19.41.24.09.59-1.29,2.05-2.34,2.68a4.85,4.85,0,0,1,1.1-2.66A1.13,1.13,0,0,1,271.83,404.15Z" style="fill: rgb(64, 123, 255); transform-origin: 271.169px 405.703px;" id="elxirxmzvjzv" class="animable"></path><path d="M256.18,131l1.52-.83S257.15,131.63,256.18,131Z" style="fill: rgb(38, 50, 56); transform-origin: 256.94px 130.664px;" id="el52ltl4uwwfc" class="animable"></path><path d="M239.87,211.35l-.9,3.14c-.12.24.17.49.57.49h36c.32,0,.58-.16.6-.35l.31-3.14c0-.21-.25-.4-.59-.4H240.44A.65.65,0,0,0,239.87,211.35Z" style="fill: rgb(64, 123, 255); transform-origin: 257.696px 213.034px;" id="elzhc2rcpmlx" class="animable"></path><g id="ellxlwg1vagbl"><path d="M239.87,211.35l-.9,3.14c-.12.24.17.49.57.49h36c.32,0,.58-.16.6-.35l.31-3.14c0-.21-.25-.4-.59-.4H240.44A.65.65,0,0,0,239.87,211.35Z" style="opacity: 0.2; transform-origin: 257.696px 213.034px;" class="animable"></path></g><path d="M244.75,215.32h-.95c-.19,0-.34-.1-.32-.22l.44-4.07c0-.12.18-.22.37-.22h1c.19,0,.33.1.32.22l-.45,4.07C245.1,215.22,244.93,215.32,244.75,215.32Z" style="fill: rgb(64, 123, 255); transform-origin: 244.544px 213.065px;" id="el6hixlx6es5" class="animable"></path><g id="elybf6pakhnsr"><path d="M244.75,215.32h-.95c-.19,0-.34-.1-.32-.22l.44-4.07c0-.12.18-.22.37-.22h1c.19,0,.33.1.32.22l-.45,4.07C245.1,215.22,244.93,215.32,244.75,215.32Z" style="fill: rgb(255, 255, 255); opacity: 0.4; transform-origin: 244.544px 213.065px;" class="animable"></path></g><path d="M272.9,215.32H272c-.19,0-.33-.1-.32-.22l.45-4.07c0-.12.18-.22.37-.22h.94c.19,0,.34.1.32.22l-.44,4.07C273.26,215.22,273.09,215.32,272.9,215.32Z" style="fill: rgb(64, 123, 255); transform-origin: 272.721px 213.065px;" id="elixu5qf4rzm" class="animable"></path><g id="elm0leqsjwu7"><path d="M272.9,215.32H272c-.19,0-.33-.1-.32-.22l.45-4.07c0-.12.18-.22.37-.22h.94c.19,0,.34.1.32.22l-.44,4.07C273.26,215.22,273.09,215.32,272.9,215.32Z" style="fill: rgb(255, 255, 255); opacity: 0.4; transform-origin: 272.721px 213.065px;" class="animable"></path></g><path d="M258.88,215.32h-.95c-.19,0-.33-.1-.32-.22l.45-4.07c0-.12.18-.22.37-.22h.95c.18,0,.33.1.32.22l-.45,4.07C259.24,215.22,259.07,215.32,258.88,215.32Z" style="fill: rgb(64, 123, 255); transform-origin: 258.655px 213.065px;" id="elel2871zil6o" class="animable"></path><g id="elj102zfzi7d9"><path d="M258.88,215.32h-.95c-.19,0-.33-.1-.32-.22l.45-4.07c0-.12.18-.22.37-.22h.95c.18,0,.33.1.32.22l-.45,4.07C259.24,215.22,259.07,215.32,258.88,215.32Z" style="fill: rgb(255, 255, 255); opacity: 0.4; transform-origin: 258.655px 213.065px;" class="animable"></path></g><g id="elha7z1erhg1m"><rect x="273.12" y="180.05" width="28.34" height="57.17" rx="4.61" style="fill: rgb(38, 50, 56); transform-origin: 287.29px 208.635px; transform: rotate(-35.53deg);" class="animable"></rect></g><path d="M323.52,148.29l-15.16,10.82.58-.42c-1.31-2.49-2.82-3-3.87-5.65-1.22-3.26-2.15-7.78-5.12-13.1-2.22-4-14.67-12.88-14.67-12.88s-2.67,1.87-3.13,2.24c-2.85,2.34-1.25,6,2,10.11,3.7,4.8,2.78,17.79,1.48,25.61s-1.88,17.58-1.88,17.63h0L309,217.36h0l7.6-1.3a41.82,41.82,0,0,0,14.31-5.81l24.44-17.45Z" style="fill: rgb(38, 50, 56); transform-origin: 318.011px 172.21px;" id="el6593dmhnj22" class="animable"></path><path d="M336.15,143.54a3.47,3.47,0,0,0-4.85-.8l-19.43,13.87h0c-1.31-2.49-2.24-3.46-3.29-6.07-1.22-3.26-2.14-7.78-5.11-13.1S291.81,124,286.78,126.2s-2.88,5.91.82,10.71,2.78,17.79,1.48,25.61-1.88,17.57-1.88,17.63h0l25.26,34.71h0l7.59-1.3a41.92,41.92,0,0,0,14.32-5.81l26.95-19.25a3.46,3.46,0,0,0,.81-4.84l-1.45-2a3.48,3.48,0,0,0-4.12-1.21l-1.46.24a.74.74,0,0,1-.79-1.19l1.76-2.07c1.09-1.21,1.78-3.44.83-4.77l-2.82-4a3.48,3.48,0,0,0-4.07-1.22l-3,1a.75.75,0,0,1-.85-1.14l2.49-3.46a3.48,3.48,0,0,0,0-4l-3.06-4.28a3.48,3.48,0,0,0-3.95-1.27l-3.78,1.29a.75.75,0,0,1-.84-1.15l1.93-2.57a3.45,3.45,0,0,0,.12-4.19Z" style="fill: rgb(64, 123, 255); transform-origin: 323.302px 170.345px;" id="elalwi9bhzpd8" class="animable"></path><g id="elc7j5x38jtoi"><rect x="276.04" y="177.96" width="28.34" height="57.17" rx="4.61" style="fill: rgb(64, 123, 255); transform-origin: 290.21px 206.545px; transform: rotate(-35.53deg);" class="animable"></rect></g><g id="elnqetuyfjil"><rect x="276.04" y="177.96" width="28.34" height="57.17" rx="4.61" style="opacity: 0.6; transform-origin: 290.21px 206.545px; transform: rotate(-35.53deg);" class="animable"></rect></g><g id="el4ozpe7jw58q"><rect x="342.28" y="201.96" width="5.68" height="1" style="fill: rgb(64, 123, 255); transform-origin: 345.12px 202.46px; transform: rotate(-36.8deg);" class="animable"></rect></g><g id="eljqdmzhbo06"><rect x="350.37" y="192.96" width="13.59" height="1" style="fill: rgb(64, 123, 255); transform-origin: 357.165px 193.46px; transform: rotate(-36.79deg);" class="animable"></rect></g><polygon points="304.94 228.27 298.52 232.51 299.63 236.51 306.86 231.56 304.94 228.27" style="fill: rgb(255, 181, 115); transform-origin: 302.69px 232.39px;" id="elzt4h7qov2x9" class="animable"></polygon><path d="M254.42,199.77l5.11-7.79,2.5,8.4s-3.88,4-7.32,2.94Z" style="fill: rgb(255, 181, 115); transform-origin: 258.225px 197.739px;" id="elbubbl3tvy7p" class="animable"></path><path d="M238.86,172.52c-.52,5.19-1.15,10.38-1.82,15.56s-1.37,10.36-2.12,15.53l-.14,1-.05.33a.27.27,0,0,0,0,.1c0,.05,0,0-.07-.11a1.25,1.25,0,0,0-.29-.45.82.82,0,0,0-.37-.27c-.06,0-.09,0,0,0a2.77,2.77,0,0,0,.93.16,15.9,15.9,0,0,0,3.14-.26c1.14-.19,2.33-.47,3.52-.78,2.39-.6,4.81-1.37,7.22-2.22s4.84-1.74,7.21-2.65l2,3.87a87,87,0,0,1-14.38,7.38c-1.29.49-2.61.94-4,1.33a21.38,21.38,0,0,1-4.6.79,11,11,0,0,1-3-.24,7.47,7.47,0,0,1-1.82-.68,6.25,6.25,0,0,1-3.08-3.68,7.22,7.22,0,0,1-.35-2,6.36,6.36,0,0,1,0-.88l.05-.65.08-1q.63-7.81,1.43-15.6c.52-5.2,1.07-10.39,1.74-15.57Z" style="fill: rgb(255, 181, 115); transform-origin: 242.397px 191.689px;" id="elurr2pxmv329" class="animable"></path><path d="M234.19,161.14c-3.51,1.07-7.72,13.14-7.72,13.14l13.6,9.73s5-10.08,3.49-14.61C242,164.67,238.19,159.92,234.19,161.14Z" style="fill: rgb(38, 50, 56); transform-origin: 235.157px 172.478px;" id="el1bcjbdy2muf" class="animable"></path><polygon points="240.19 185.21 225.52 174.59 225.83 173.18 241.47 183.78 240.19 185.21" style="fill: rgb(64, 123, 255); transform-origin: 233.495px 179.195px;" id="eltt2b4msvnr" class="animable"></polygon><polygon points="266.39 189.66 268.11 196.81 262.03 200.38 259.53 191.99 266.39 189.66" style="fill: rgb(255, 181, 115); transform-origin: 263.82px 195.02px;" id="elk88gqydztkm" class="animable"></polygon></g><defs>     <filter id="active" height="200%">         <feMorphology in="SourceAlpha" result="DILATED" operator="dilate" radius="2"></feMorphology>                <feFlood flood-color="#32DFEC" flood-opacity="1" result="PINK"></feFlood>        <feComposite in="PINK" in2="DILATED" operator="in" result="OUTLINE"></feComposite>        <feMerge>            <feMergeNode in="OUTLINE"></feMergeNode>            <feMergeNode in="SourceGraphic"></feMergeNode>        </feMerge>    </filter>    <filter id="hover" height="200%">        <feMorphology in="SourceAlpha" result="DILATED" operator="dilate" radius="2"></feMorphology>                <feFlood flood-color="#ff0000" flood-opacity="0.5" result="PINK"></feFlood>        <feComposite in="PINK" in2="DILATED" operator="in" result="OUTLINE"></feComposite>        <feMerge>            <feMergeNode in="OUTLINE"></feMergeNode>            <feMergeNode in="SourceGraphic"></feMergeNode>        </feMerge>            <feColorMatrix type="matrix" values="0   0   0   0   0                0   1   0   0   0                0   0   0   0   0                0   0   0   1   0 "></feColorMatrix>    </filter></defs></svg>