<svg xmlns="http://www.w3.org/2000/svg" version="1.1" xmlns:xlink="http://www.w3.org/1999/xlink" xmlns:svgjs="http://svgjs.dev/svgjs" width="128" height="128" viewBox="0 0 128 128"><g transform="matrix(0.8046875,0,0,0.8046875,12.760752631578946,13.86612120492319)"><svg viewBox="0 0 95 93" data-background-color="#ffffff" preserveAspectRatio="xMidYMid meet" height="125" width="128" xmlns="http://www.w3.org/2000/svg" xmlns:xlink="http://www.w3.org/1999/xlink"><g id="tight-bounds" transform="matrix(1,0,0,1,-0.24049999999999727,-0.14709179210917966)"><svg viewBox="0 0 95.481 93.29418358421837" height="93.29418358421837" width="95.481"><g><svg viewBox="0 0 95.481 93.29418358421837" height="93.29418358421837" width="95.481"><g><svg viewBox="0 0 95.481 93.29418358421837" height="93.29418358421837" width="95.481"><g id="textblocktransform"><svg viewBox="0 0 95.481 93.29418358421837" height="93.29418358421837" width="95.481" id="textblock"><g><svg viewBox="0 0 95.481 93.29418358421837" height="93.29418358421837" width="95.481"><g><svg viewBox="0 0 95.481 93.29418358421837" height="93.29418358421837" width="95.481"><g><svg xmlns="http://www.w3.org/2000/svg" xmlns:xlink="http://www.w3.org/1999/xlink" version="1.1" x="0" y="0" viewBox="1.5 2.5792999762673388 96.94095399636365 94.72070002373266" enable-background="new 0 0 100 100" xml:space="preserve" height="93.29418358421837" width="95.481" class="icon-icon-0" data-fill-palette-color="accent" id="icon-0"><path d="M1.5 24.4c0-6.7 5.4-12.1 12.1-12.1H55c0.6 0 1 0.4 1 1s-0.4 1-1 1H13.6C8 14.3 3.5 18.8 3.5 24.4v41.2c0 5.6 4.5 10.1 10.1 10.1h8.7c0.6 0 1 0.4 1 1V94l18.8-18c0.2-0.2 0.4-0.3 0.7-0.3h38.2c4.1 0 7.9-2.6 9.4-6.4 0.2-0.5 0.8-0.8 1.3-0.6 0.5 0.2 0.8 0.8 0.6 1.3-1.8 4.6-6.3 7.7-11.3 7.7H43.2L23 97c-0.2 0.2-0.4 0.3-0.7 0.3-0.1 0-0.3 0-0.4-0.1-0.4-0.2-0.6-0.5-0.6-0.9V77.7h-7.7c-6.7 0-12.1-5.4-12.1-12.1V24.4zM98.3 32.3l-3.5 22.2c-0.6 5.1-4.2 8.1-9.9 8.1H58c-3 0-5.5-1.6-7-3.9-0.9 1.4-2.4 2.3-4.1 2.3h-5.6c-2.7 0-4.9-2.2-4.9-4.9V30.9c0-2.7 2.2-4.9 4.9-4.9h5.6c2.7 0 4.9 2.2 4.9 4.9v23.4c0 3.4 2.8 6.2 6.2 6.2H85c3.2 0 7.3-1.1 7.9-6.3L96.4 32c0.2-1.1 0.1-2.2-0.4-3.1-1-2.3-3.2-3.8-5.7-3.8H75.1c-0.6 0-1-0.4-1-1V12.6c0-3.3-0.9-5.6-2.6-6.8-2.1-1.5-4.9-1.2-6.2-0.9v10.2c0 10.6-12.2 14.2-12.4 14.2-0.5 0.2-1.1-0.2-1.2-0.7s0.2-1.1 0.7-1.2c0.4-0.1 10.9-3.2 10.9-12.3v-11c0-0.4 0.3-0.8 0.7-1 0.2-0.1 5.1-1.6 8.7 1 2.2 1.6 3.4 4.5 3.4 8.4V23h14.2c3.3 0 6.3 2 7.6 5C98.4 29.4 98.6 30.8 98.3 32.3zM49.8 30.9c0-1.6-1.3-2.9-2.9-2.9h-5.6c-1.6 0-2.9 1.3-2.9 2.9V56c0 1.6 1.3 2.9 2.9 2.9h5.6c1.6 0 2.9-1.3 2.9-2.9V30.9z" fill="#b9ffe6" data-fill-palette-color="accent"></path></svg></g></svg></g></svg></g></svg></g></svg></g></svg></g><defs></defs></svg><rect width="95.481" height="93.29418358421837" fill="none" stroke="none" visibility="hidden"></rect></g></svg></g></svg>